<svg data-bbox="21.499 21.501 157.001 156.999" viewBox="21.499 21.501 157.001 156.999" xmlns="http://www.w3.org/2000/svg" data-type="color" aria-hidden="true" aria-labelledby="svgcid-o4si4qcyer1s"><path d="M178.5 100.008c0 20.957-8.235 40.023-21.63 54.106 0 0-13.114-.945-18.092 2.342-4.426 2.923-9.723 16.484-9.723 16.484-8.988 3.589-18.794 5.56-29.048 5.56-26.26 0-49.508-12.898-63.752-32.685 0 0 6.259-13.338 4.187-17.76-2.216-4.73-16.78-9.685-16.78-9.685a78.786 78.786 0 01-2.163-18.361c0-43.356 35.152-78.508 78.508-78.508 43.341-.001 78.493 35.151 78.493 78.507z" fill="#CCC" data-color="1"/><path d="M50.017 109.412L33.1 117.608l9.076 22.168 20.375-8.82c1.448.074 2.919-.037 3.991-.16 8.339-.962 20.725-7.484 20.725-7.484.007-.012.013-.026.021-.038l18.887-8.176a3.572 3.572 0 001.856-4.695 3.567 3.567 0 00-4.693-1.855l-15.258 6.604c-.037-.17-.077-.344-.12-.522l23.422-10.139a3.831 3.831 0 10-3.043-7.033l-22.825 9.88c-.062-.154-.121-.306-.187-.463l28.163-12.192a3.831 3.831 0 10-3.044-7.033L81.985 99.97c-.09-.152-.182-.304-.277-.456l25.329-10.966a3.831 3.831 0 00-3.042-7.032L74.536 94.269l-.025.012c-2.901 1.238-8.428 4.073-9.56 4.656l-14.934 10.475z" fill="#FFF8E6" data-color="2"/><path d="M143.108 125.239l-.298-1.499-.132.026c.009-.4-.023-.806-.104-1.215l-12.931-65.117a5.553 5.553 0 00-6.529-4.365l-56.699 11.26a5.553 5.553 0 00-4.365 6.529l12.931 65.117.236 1.189.298 1.499a5.553 5.553 0 006.529 4.365l56.699-11.259a5.555 5.555 0 004.365-6.53zm-11.02-27.681l-56.966 11.313-2.586-13.021 56.966-11.313 2.586 13.021zm-2.985-15.028L72.137 93.842l-2.586-13.021 56.966-11.313 2.586 13.022zM67.47 69.642l56.699-11.259a.136.136 0 01.16.106l1.79 9.012-56.966 11.313-1.79-9.012a.137.137 0 01.107-.16zm8.05 41.237l56.966-11.313 2.586 13.021L78.106 123.9l-2.586-13.021zm61.633 12.887l-56.699 11.259a.136.136 0 01-.16-.106l-1.79-9.012 56.966-11.313 1.79 9.012a.136.136 0 01-.107.16z" fill="#670E0E" data-color="3"/><path d="M96.119 124.099a2.092 2.092 0 01-1.64 2.453l-.767.152a2.092 2.092 0 01-2.453-1.64l-1.044-5.258a2.092 2.092 0 011.64-2.453l.768-.153a2.092 2.092 0 012.453 1.64l1.043 5.259zm7.164-1.423a2.092 2.092 0 01-1.64 2.453l-.768.153a2.092 2.092 0 01-2.453-1.64l-1.044-5.258a2.092 2.092 0 011.641-2.453l.768-.152a2.092 2.092 0 012.453 1.64l1.043 5.257zm-1.405-46.585a2.092 2.092 0 01-1.64 2.453l-.768.152a2.092 2.092 0 01-2.453-1.64l-1.044-5.258a2.092 2.092 0 011.64-2.453l.768-.153a2.092 2.092 0 012.453 1.64l1.044 5.259zm7.164-1.422a2.092 2.092 0 01-1.64 2.453l-.767.152a2.091 2.091 0 01-2.453-1.64l-1.044-5.258a2.092 2.092 0 011.64-2.453l.768-.152a2.092 2.092 0 012.453 1.64l1.043 5.258zM93.134 109.07a2.092 2.092 0 01-1.64 2.453l-.768.152a2.092 2.092 0 01-2.453-1.64l-1.044-5.258a2.092 2.092 0 011.64-2.453l.768-.153a2.092 2.092 0 012.453 1.64l1.044 5.259zm7.164-1.423a2.092 2.092 0 01-1.64 2.453l-.768.153a2.092 2.092 0 01-2.453-1.64l-1.044-5.258a2.092 2.092 0 011.64-2.453l.767-.152a2.092 2.092 0 012.453 1.64l1.045 5.257zm7.548-1.499a2.092 2.092 0 01-1.64 2.453l-.768.152a2.092 2.092 0 01-2.453-1.64l-1.044-5.258a2.092 2.092 0 011.64-2.453l.768-.153a2.092 2.092 0 012.453 1.64l1.044 5.259zm7.165-1.422a2.092 2.092 0 01-1.64 2.453l-.768.153a2.092 2.092 0 01-2.453-1.641l-1.044-5.258a2.092 2.092 0 011.64-2.453l.768-.152a2.092 2.092 0 012.453 1.64l1.044 5.258zm2.218-31.683a2.092 2.092 0 01-1.64 2.453l-.768.152a2.092 2.092 0 01-2.453-1.64l-1.044-5.258a2.092 2.092 0 011.64-2.453l.767-.153a2.092 2.092 0 012.453 1.64l1.045 5.259zm8.954 45.085a2.092 2.092 0 01-1.64 2.453l-.768.153a2.092 2.092 0 01-2.453-1.64l-1.044-5.258a2.092 2.092 0 011.64-2.453l.768-.152a2.092 2.092 0 012.453 1.64l1.044 5.257zM87.165 79.013a2.091 2.091 0 01-1.64 2.453l-.768.152a2.092 2.092 0 01-2.453-1.64L81.26 74.72a2.092 2.092 0 011.64-2.453l.768-.152a2.092 2.092 0 012.453 1.641l1.044 5.257zm7.165-1.423a2.092 2.092 0 01-1.64 2.453l-.767.152a2.092 2.092 0 01-2.453-1.64l-1.044-5.258a2.092 2.092 0 011.64-2.453l.768-.153a2.092 2.092 0 012.453 1.64l1.043 5.259zm23.665 42.164a2.092 2.092 0 01-1.64 2.453l-.768.153a2.092 2.092 0 01-2.453-1.64l-1.044-5.258a2.093 2.093 0 011.64-2.453l.768-.152a2.092 2.092 0 012.453 1.64l1.044 5.257zM104.862 91.12a2.092 2.092 0 01-1.64 2.453l-.768.152a2.092 2.092 0 01-2.453-1.64l-1.044-5.258a2.092 2.092 0 011.64-2.453l.768-.153a2.092 2.092 0 012.453 1.64l1.044 5.259zm7.164-1.423a2.093 2.093 0 01-1.64 2.453l-.768.153a2.092 2.092 0 01-2.453-1.641l-1.044-5.258a2.092 2.092 0 011.641-2.453l.767-.152a2.092 2.092 0 012.453 1.64l1.044 5.258zm8.188-1.626a2.092 2.092 0 01-1.64 2.453l-.768.152a2.091 2.091 0 01-2.453-1.64l-1.044-5.258a2.092 2.092 0 011.641-2.453l.768-.152a2.092 2.092 0 012.453 1.64l1.043 5.258z" fill="#F85B30" data-color="4"/><path d="M87.165 79.013a2.091 2.091 0 01-1.64 2.453l-.768.152a2.092 2.092 0 01-2.453-1.64L81.26 74.72a2.092 2.092 0 011.64-2.453l.768-.152a2.092 2.092 0 012.453 1.641l1.044 5.257zm7.165-1.423a2.092 2.092 0 01-1.64 2.453l-.767.152a2.092 2.092 0 01-2.453-1.64l-1.044-5.258a2.092 2.092 0 011.64-2.453l.768-.153a2.092 2.092 0 012.453 1.64l1.043 5.259zm23.665 42.164a2.092 2.092 0 01-1.64 2.453l-.768.153a2.092 2.092 0 01-2.453-1.64l-1.044-5.258a2.093 2.093 0 011.64-2.453l.768-.152a2.092 2.092 0 012.453 1.64l1.044 5.257zM104.862 91.12a2.092 2.092 0 01-1.64 2.453l-.768.152a2.092 2.092 0 01-2.453-1.64l-1.044-5.258a2.092 2.092 0 011.64-2.453l.768-.153a2.092 2.092 0 012.453 1.64l1.044 5.259zm7.164-1.423a2.093 2.093 0 01-1.64 2.453l-.768.153a2.092 2.092 0 01-2.453-1.641l-1.044-5.258a2.092 2.092 0 011.641-2.453l.767-.152a2.092 2.092 0 012.453 1.64l1.044 5.258zm8.188-1.626a2.092 2.092 0 01-1.64 2.453l-.768.152a2.091 2.091 0 01-2.453-1.64l-1.044-5.258a2.092 2.092 0 011.641-2.453l.768-.152a2.092 2.092 0 012.453 1.64l1.043 5.258z" opacity=".5"/><path d="M64.952 98.937c1.079-3.579 2.024-6.468 2.024-6.468s3.794-4.74 5.111-6.094c4.42-4.538 1.974-9.308 1.24-10.119-1.26-1.386-2.934.774-2.934.774L58.01 89.357c-3.188 3.462-6.861 13.616-7.993 20.055l14.935-10.475zm86.331 12.097l-.681-4.712a3.86 3.86 0 00-4.314-3.346 3.844 3.844 0 00-3.163 2.609l-.064-.729a4.111 4.111 0 00-4.592-3.562 4.101 4.101 0 00-3.411 2.875l-.072-.686c-.328-2.304-2.415-3.915-4.663-3.594-2.249.32-3.802 2.449-3.475 4.756l.003.005c-.029.002-.058.002-.087.002-.003-.001-.007-.007-.009-.006l-.001.006c-.029 0-.057 0-.085.003l-3.318-19.071a4.28 4.28 0 00-8.425 1.506s3.537 21.583 5.203 31.447l-6.444 5.655 1.558 11.544c1.419 1.951 9.168 8.79 11.825 11.112.403.352.755.644.925.785l1.673 12.146 21.881-5.678-1.397-10.784s2.438-6.81 2.44-6.891c.083-2.456.587-16.607-1.307-25.392z" fill="#FFF8E6" data-color="2"/><path d="M156.87 154.114a78.738 78.738 0 01-27.814 18.826l-3.028-21.245 29.897-4.246.945 6.665zM54.682 138.205l-18.425 7.61a77.862 77.862 0 01-12.593-27.446l19.483-8.075 11.535 27.911z" fill="#670E0E" data-color="3"/></svg>