<svg data-bbox="47.999 62.5 104 74.999" viewBox="47.999 62.5 104 74.999" height="200" width="200" xmlns="http://www.w3.org/2000/svg" data-type="color" aria-hidden="true" aria-labelledby="svgcid-1keyp2f40hmb"><defs><style/></defs><path fill="#670e0e" d="M96.43 94.141c0 5.558-10.616 10.064-23.712 10.064s-23.712-4.506-23.712-10.064 10.616-10.064 23.712-10.064S96.43 88.583 96.43 94.141zm55.146-21.577c0 5.558-10.616 10.064-23.712 10.064s-23.712-4.506-23.712-10.064S114.768 62.5 127.864 62.5s23.712 4.506 23.712 10.064z" data-color="1"/><path d="M93.711 107.041c-4.424 2.983-12.458 4.836-20.964 4.836-8.982 0-17.227-2.004-21.519-5.232a2.018 2.018 0 00-2.825.405 2.026 2.026 0 00.404 2.832c5.03 3.782 13.979 6.04 23.94 6.04 9.406 0 18.085-2.066 23.215-5.525a2.025 2.025 0 00.548-2.807 2.013 2.013 0 00-2.799-.549zm0 10.788c-4.424 2.983-12.458 4.836-20.964 4.836-8.982 0-17.227-2.004-21.519-5.232a2.017 2.017 0 00-2.825.405 2.026 2.026 0 00.404 2.832c5.03 3.782 13.979 6.04 23.94 6.04 9.406 0 18.085-2.066 23.215-5.525a2.025 2.025 0 00.548-2.807 2.013 2.013 0 00-2.799-.549zm0 10.789c-4.424 2.983-12.458 4.836-20.964 4.836-8.982 0-17.227-2.004-21.519-5.232a2.017 2.017 0 00-2.825.405 2.026 2.026 0 00.404 2.832c5.03 3.782 13.979 6.04 23.94 6.04 9.406 0 18.085-2.066 23.215-5.525a2.025 2.025 0 00.548-2.807 2.014 2.014 0 00-2.799-.549zm10.242-40.312c5.03 3.782 13.979 6.04 23.94 6.04 9.406 0 18.085-2.066 23.215-5.525a2.025 2.025 0 00.548-2.807 2.013 2.013 0 00-2.8-.55c-4.424 2.983-12.458 4.836-20.964 4.836-8.982 0-17.227-2.004-21.519-5.232a2.016 2.016 0 00-2.825.405 2.03 2.03 0 00.405 2.833zm44.904 7.947c-4.424 2.983-12.458 4.836-20.964 4.836-8.982 0-17.227-2.004-21.519-5.232a2.016 2.016 0 00-2.825.405 2.026 2.026 0 00.404 2.832c5.03 3.782 13.979 6.04 23.94 6.04 9.406 0 18.085-2.066 23.215-5.525a2.025 2.025 0 00.548-2.807 2.013 2.013 0 00-2.799-.549zm0 10.788c-4.424 2.983-12.458 4.836-20.964 4.836-8.982 0-17.227-2.004-21.519-5.232a2.018 2.018 0 00-2.825.405 2.026 2.026 0 00.404 2.832c5.03 3.782 13.979 6.04 23.94 6.04 9.406 0 18.085-2.066 23.215-5.525a2.025 2.025 0 00.548-2.807 2.013 2.013 0 00-2.799-.549zm0 10.788c-4.424 2.983-12.458 4.836-20.964 4.836-8.982 0-17.227-2.004-21.519-5.232a2.017 2.017 0 00-2.825.405 2.026 2.026 0 00.404 2.832c5.03 3.782 13.979 6.04 23.94 6.04 9.406 0 18.085-2.066 23.215-5.525a2.025 2.025 0 00.548-2.807 2.013 2.013 0 00-2.799-.549zm0 10.789c-4.424 2.983-12.458 4.836-20.964 4.836-8.982 0-17.227-2.004-21.519-5.232a2.017 2.017 0 00-2.825.405 2.026 2.026 0 00.404 2.832c5.03 3.782 13.979 6.04 23.94 6.04 9.406 0 18.085-2.066 23.215-5.525a2.025 2.025 0 00.548-2.807 2.014 2.014 0 00-2.799-.549z" fill="#f90000" data-color="2"/></svg>