<svg width="614" height="109" viewBox="0 0 614 109" fill="none" xmlns="http://www.w3.org/2000/svg">
<g filter="url(#filter0_b_0_1)">
<path d="M106.76 92H105.4V106H106.28V94.58H106.36L112.54 106.24H112.9L119.22 94.66H119.3V106H121.12V92H119.74L113.26 104.02H113.18L106.76 92ZM126.527 99C126.527 99.7467 126.667 100.547 126.947 101.4C127.241 102.24 127.694 103.02 128.307 103.74C128.921 104.46 129.701 105.06 130.647 105.54C131.594 106.007 132.727 106.24 134.047 106.24C134.941 106.24 135.747 106.133 136.467 105.92C137.201 105.693 137.854 105.393 138.427 105.02C139.014 104.647 139.521 104.22 139.947 103.74C140.374 103.247 140.721 102.733 140.987 102.2C141.267 101.653 141.474 101.107 141.607 100.56C141.754 100.013 141.827 99.4933 141.827 99C141.827 98.2533 141.674 97.46 141.367 96.62C141.061 95.7667 140.587 94.98 139.947 94.26C139.307 93.54 138.494 92.9467 137.507 92.48C136.534 92 135.381 91.76 134.047 91.76C132.727 91.76 131.594 91.9933 130.647 92.46C129.701 92.9267 128.921 93.52 128.307 94.24C127.694 94.9467 127.241 95.7267 126.947 96.58C126.667 97.4333 126.527 98.24 126.527 99ZM128.487 99C128.487 98.0667 128.627 97.2133 128.907 96.44C129.201 95.6533 129.594 94.98 130.087 94.42C130.594 93.86 131.187 93.4267 131.867 93.12C132.547 92.8 133.287 92.64 134.087 92.64C134.874 92.64 135.614 92.8 136.307 93.12C137.014 93.4267 137.627 93.86 138.147 94.42C138.681 94.98 139.101 95.6533 139.407 96.44C139.714 97.2133 139.867 98.0667 139.867 99C139.867 99.9333 139.714 100.793 139.407 101.58C139.101 102.353 138.681 103.02 138.147 103.58C137.627 104.14 137.014 104.58 136.307 104.9C135.614 105.207 134.874 105.36 134.087 105.36C133.287 105.36 132.547 105.207 131.867 104.9C131.187 104.58 130.594 104.14 130.087 103.58C129.594 103.02 129.201 102.353 128.907 101.58C128.627 100.793 128.487 99.9333 128.487 99ZM153.552 92H152.332L147.312 105.06H145.432V108.1H147.152V106H159.352V108.1H161.052V105.06H159.092L153.552 92ZM157.172 105.06H148.252L152.452 94.18H152.532L157.172 105.06ZM166.388 92H164.248L170.508 102.14L169.788 103.66C169.655 103.927 169.488 104.16 169.288 104.36C169.102 104.56 168.795 104.66 168.368 104.66C168.048 104.66 167.755 104.56 167.488 104.36C167.222 104.16 167.002 103.947 166.828 103.72L165.988 105.58C166.175 105.74 166.448 105.887 166.808 106.02C167.182 106.167 167.595 106.24 168.048 106.24C168.248 106.24 168.455 106.22 168.668 106.18C168.895 106.14 169.108 106.053 169.308 105.92C169.522 105.787 169.728 105.607 169.928 105.38C170.128 105.14 170.322 104.827 170.508 104.44L176.248 92H175.208L171.468 100.12H171.388L166.388 92ZM187.972 92H186.872L182.552 103.04C182.325 103.64 182.105 104.12 181.892 104.48C181.692 104.84 181.372 105.02 180.932 105.02C180.758 105.02 180.592 104.973 180.432 104.88C180.272 104.787 180.125 104.707 179.992 104.64L179.452 106C179.678 106.08 179.918 106.14 180.172 106.18C180.438 106.22 180.705 106.24 180.972 106.24C181.398 106.24 181.778 106.06 182.112 105.7C182.458 105.34 182.765 104.82 183.032 104.14L186.932 94.24H187.012L192.072 106H194.052L187.972 92ZM199.052 106H203.812C204.772 106 205.572 105.873 206.212 105.62C206.852 105.367 207.366 105.04 207.752 104.64C208.139 104.24 208.412 103.8 208.572 103.32C208.746 102.827 208.832 102.34 208.832 101.86C208.832 101.407 208.739 100.953 208.552 100.5C208.379 100.047 208.092 99.6467 207.692 99.3C207.306 98.9533 206.799 98.6733 206.172 98.46C205.559 98.2333 204.812 98.12 203.932 98.12H200.872V92H199.052V106ZM200.872 105.12V99H203.432C203.926 99 204.379 99.08 204.792 99.24C205.219 99.3867 205.579 99.6 205.872 99.88C206.179 100.147 206.412 100.473 206.572 100.86C206.746 101.233 206.832 101.64 206.832 102.08C206.832 102.493 206.752 102.887 206.592 103.26C206.446 103.62 206.232 103.94 205.952 104.22C205.686 104.5 205.359 104.72 204.972 104.88C204.599 105.04 204.179 105.12 203.712 105.12H200.872ZM216.251 99.04H224.631V106H226.451V92H224.631V98.12H216.251V92H214.431V106H216.251V99.04ZM233.248 106H238.008C238.968 106 239.768 105.873 240.408 105.62C241.048 105.367 241.561 105.04 241.948 104.64C242.334 104.24 242.608 103.8 242.768 103.32C242.941 102.827 243.028 102.34 243.028 101.86C243.028 101.407 242.934 100.953 242.748 100.5C242.574 100.047 242.288 99.6467 241.888 99.3C241.501 98.9533 240.994 98.6733 240.368 98.46C239.754 98.2333 239.008 98.12 238.128 98.12H235.068V92H233.248V106ZM235.068 105.12V99H237.628C238.121 99 238.574 99.08 238.988 99.24C239.414 99.3867 239.774 99.6 240.068 99.88C240.374 100.147 240.608 100.473 240.768 100.86C240.941 101.233 241.028 101.64 241.028 102.08C241.028 102.493 240.948 102.887 240.788 103.26C240.641 103.62 240.428 103.94 240.148 104.22C239.881 104.5 239.554 104.72 239.168 104.88C238.794 105.04 238.374 105.12 237.908 105.12H235.068ZM245.028 92V106H246.848V92H245.028ZM253.646 92V106H262.686V104.9H255.466V99.08H261.666V98.12H255.466V93.1H262.686V92H253.646ZM281.85 106V93.1H287.21V92H274.67V93.1H280.03V106H281.85ZM292.009 92V106H301.049V104.9H293.829V99.08H300.029V98.12H293.829V93.1H301.049V92H292.009ZM306.281 92H304.041L309.501 99.02L304.141 106H305.221L310.001 99.74H310.081L314.961 106H317.221L311.161 98.26L315.941 92H314.881L310.661 97.5H310.561L306.281 92ZM323.845 99.04H332.225V106H334.045V92H332.225V98.12H323.845V92H322.025V106H323.845V99.04ZM339.441 99C339.441 99.7467 339.581 100.547 339.861 101.4C340.155 102.24 340.608 103.02 341.221 103.74C341.835 104.46 342.615 105.06 343.561 105.54C344.508 106.007 345.641 106.24 346.961 106.24C347.855 106.24 348.661 106.133 349.381 105.92C350.115 105.693 350.768 105.393 351.341 105.02C351.928 104.647 352.435 104.22 352.861 103.74C353.288 103.247 353.635 102.733 353.901 102.2C354.181 101.653 354.388 101.107 354.521 100.56C354.668 100.013 354.741 99.4933 354.741 99C354.741 98.2533 354.588 97.46 354.281 96.62C353.975 95.7667 353.501 94.98 352.861 94.26C352.221 93.54 351.408 92.9467 350.421 92.48C349.448 92 348.295 91.76 346.961 91.76C345.641 91.76 344.508 91.9933 343.561 92.46C342.615 92.9267 341.835 93.52 341.221 94.24C340.608 94.9467 340.155 95.7267 339.861 96.58C339.581 97.4333 339.441 98.24 339.441 99ZM341.401 99C341.401 98.0667 341.541 97.2133 341.821 96.44C342.115 95.6533 342.508 94.98 343.001 94.42C343.508 93.86 344.101 93.4267 344.781 93.12C345.461 92.8 346.201 92.64 347.001 92.64C347.788 92.64 348.528 92.8 349.221 93.12C349.928 93.4267 350.541 93.86 351.061 94.42C351.595 94.98 352.015 95.6533 352.321 96.44C352.628 97.2133 352.781 98.0667 352.781 99C352.781 99.9333 352.628 100.793 352.321 101.58C352.015 102.353 351.595 103.02 351.061 103.58C350.541 104.14 349.928 104.58 349.221 104.9C348.528 105.207 347.788 105.36 347.001 105.36C346.201 105.36 345.461 105.207 344.781 104.9C344.101 104.58 343.508 104.14 343.001 103.58C342.508 103.02 342.115 102.353 341.821 101.58C341.541 100.793 341.401 99.9333 341.401 99ZM366.866 92H365.766L361.446 103.04C361.219 103.64 360.999 104.12 360.786 104.48C360.586 104.84 360.266 105.02 359.826 105.02C359.653 105.02 359.486 104.973 359.326 104.88C359.166 104.787 359.019 104.707 358.886 104.64L358.346 106C358.573 106.08 358.813 106.14 359.066 106.18C359.333 106.22 359.599 106.24 359.866 106.24C360.293 106.24 360.673 106.06 361.006 105.7C361.353 105.34 361.659 104.82 361.926 104.14L365.826 94.24H365.906L370.966 106H372.946L366.866 92ZM376.547 99C376.547 99.7467 376.687 100.547 376.967 101.4C377.26 102.24 377.714 103.02 378.327 103.74C378.94 104.46 379.72 105.06 380.667 105.54C381.614 106.007 382.747 106.24 384.067 106.24C384.96 106.24 385.767 106.133 386.487 105.92C387.22 105.693 387.874 105.393 388.447 105.02C389.034 104.647 389.54 104.22 389.967 103.74C390.394 103.247 390.74 102.733 391.007 102.2C391.287 101.653 391.494 101.107 391.627 100.56C391.774 100.013 391.847 99.4933 391.847 99C391.847 98.2533 391.694 97.46 391.387 96.62C391.08 95.7667 390.607 94.98 389.967 94.26C389.327 93.54 388.514 92.9467 387.527 92.48C386.554 92 385.4 91.76 384.067 91.76C382.747 91.76 381.614 91.9933 380.667 92.46C379.72 92.9267 378.94 93.52 378.327 94.24C377.714 94.9467 377.26 95.7267 376.967 96.58C376.687 97.4333 376.547 98.24 376.547 99ZM378.507 99C378.507 98.0667 378.647 97.2133 378.927 96.44C379.22 95.6533 379.614 94.98 380.107 94.42C380.614 93.86 381.207 93.4267 381.887 93.12C382.567 92.8 383.307 92.64 384.107 92.64C384.894 92.64 385.634 92.8 386.327 93.12C387.034 93.4267 387.647 93.86 388.167 94.42C388.7 94.98 389.12 95.6533 389.427 96.44C389.734 97.2133 389.887 98.0667 389.887 99C389.887 99.9333 389.734 100.793 389.427 101.58C389.12 102.353 388.7 103.02 388.167 103.58C387.647 104.14 387.034 104.58 386.327 104.9C385.634 105.207 384.894 105.36 384.107 105.36C383.307 105.36 382.567 105.207 381.887 104.9C381.207 104.58 380.614 104.14 380.107 103.58C379.614 103.02 379.22 102.353 378.927 101.58C378.647 100.793 378.507 99.9333 378.507 99ZM397.252 92V106H399.072V93.1H405.792V92H397.252ZM412.615 104.36V92H410.795V106H412.615L420.915 93.5V106H422.735V92H420.915L412.615 104.36ZM431.353 104.36V92H429.533V106H431.353L439.653 93.5V106H441.473V92H439.653L431.353 104.36Z" fill="black"/>
</g>
<path d="M111.109 18.5H105.329V78H109.069V29.465H109.409L135.674 79.02H137.204L164.064 29.805H164.404V78H172.139V18.5H166.274L138.734 69.585H138.394L111.109 18.5ZM218.836 78V23.175H241.616V18.5H188.321V23.175H211.101V78H218.836ZM345.877 51.48H329.047V54.965H338.567V70.35C336.017 71.9933 333.41 73.2117 330.747 74.005C328.083 74.7983 325.052 75.195 321.652 75.195C317.175 75.195 313.265 74.515 309.922 73.155C306.578 71.795 303.802 69.925 301.592 67.545C299.382 65.1083 297.71 62.2467 296.577 58.96C295.5 55.6167 294.962 51.9617 294.962 47.995C294.962 44.085 295.472 40.4867 296.492 37.2C297.568 33.9133 299.155 31.08 301.252 28.7C303.348 26.32 305.898 24.4783 308.902 23.175C311.962 21.8717 315.503 21.22 319.527 21.22C322.19 21.22 324.683 21.5033 327.007 22.07C329.33 22.6367 331.398 23.3733 333.212 24.28C335.025 25.1867 336.498 26.235 337.632 27.425C338.822 28.5583 339.587 29.72 339.927 30.91H346.047C345.537 29.6633 344.658 28.275 343.412 26.745C342.222 25.1583 340.578 23.685 338.482 22.325C336.385 20.965 333.778 19.8317 330.662 18.925C327.602 17.9617 323.975 17.48 319.782 17.48C314.965 17.48 310.517 18.16 306.437 19.52C302.413 20.88 298.928 22.835 295.982 25.385C293.035 27.935 290.74 31.08 289.097 34.82C287.453 38.5033 286.632 42.6967 286.632 47.4C286.632 51.4233 287.255 55.3333 288.502 59.13C289.805 62.87 291.76 66.2417 294.367 69.245C297.03 72.1917 300.402 74.5717 304.482 76.385C308.562 78.1417 313.435 79.02 319.102 79.02C323.352 79.02 327.12 78.5667 330.407 77.66C333.693 76.6967 336.413 75.6483 338.567 74.515V78H345.877V51.48ZM365.459 18.5V78H373.194V51.735H376.934C378.521 51.735 379.824 51.8767 380.844 52.16C381.921 52.4433 382.884 52.925 383.734 53.605C384.584 54.285 385.378 55.1633 386.114 56.24C386.851 57.3167 387.729 58.6483 388.749 60.235L395.464 70.18C396.314 71.4833 397.136 72.6733 397.929 73.75C398.779 74.8267 399.686 75.7617 400.649 76.555C401.613 77.2917 402.689 77.8867 403.879 78.34C405.126 78.7933 406.599 79.02 408.299 79.02C409.546 79.02 410.566 78.9633 411.359 78.85C412.153 78.7367 412.946 78.4533 413.739 78V74.855C413.456 74.9117 413.173 74.9683 412.889 75.025C412.606 75.025 412.323 75.025 412.039 75.025C410.849 75.025 409.801 74.855 408.894 74.515C407.988 74.175 407.138 73.6933 406.344 73.07C405.551 72.39 404.786 71.5967 404.049 70.69C403.313 69.7267 402.548 68.65 401.754 67.46C399.374 64.0033 397.533 61.255 396.229 59.215C394.926 57.1183 393.878 55.5033 393.084 54.37C392.348 53.2367 391.724 52.415 391.214 51.905C390.761 51.395 390.194 50.97 389.514 50.63L388.664 50.205V49.865C391.384 49.695 393.708 49.1 395.634 48.08C397.618 47.06 399.233 45.785 400.479 44.255C401.726 42.725 402.633 41.0817 403.199 39.325C403.766 37.5117 404.049 35.755 404.049 34.055C404.049 32.525 403.738 30.8533 403.114 29.04C402.548 27.2267 401.528 25.555 400.054 24.025C398.638 22.4383 396.683 21.135 394.189 20.115C391.696 19.0383 388.551 18.5 384.754 18.5H365.459ZM373.194 22.24H381.779C383.933 22.24 385.859 22.5517 387.559 23.175C389.316 23.7983 390.818 24.6767 392.064 25.81C393.311 26.8867 394.246 28.19 394.869 29.72C395.549 31.25 395.889 32.9217 395.889 34.735C395.889 36.265 395.578 37.8233 394.954 39.41C394.388 40.94 393.509 42.3567 392.319 43.66C391.129 44.9067 389.656 45.9267 387.899 46.72C386.199 47.5133 384.216 47.91 381.949 47.91H373.194V22.24ZM424.77 48.25C424.77 51.4233 425.365 54.8233 426.555 58.45C427.802 62.02 429.728 65.335 432.335 68.395C434.942 71.455 438.257 74.005 442.28 76.045C446.303 78.0283 451.12 79.02 456.73 79.02C460.527 79.02 463.955 78.5667 467.015 77.66C470.132 76.6967 472.908 75.4217 475.345 73.835C477.838 72.2483 479.992 70.435 481.805 68.395C483.618 66.2983 485.092 64.1167 486.225 61.85C487.415 59.5267 488.293 57.2033 488.86 54.88C489.483 52.5567 489.795 50.3467 489.795 48.25C489.795 45.0767 489.143 41.705 487.84 38.135C486.537 34.5083 484.525 31.165 481.805 28.105C479.085 25.045 475.628 22.5233 471.435 20.54C467.298 18.5 462.397 17.48 456.73 17.48C451.12 17.48 446.303 18.4717 442.28 20.455C438.257 22.4383 434.942 24.96 432.335 28.02C429.728 31.0233 427.802 34.3383 426.555 37.965C425.365 41.5917 424.77 45.02 424.77 48.25ZM433.1 48.25C433.1 44.2833 433.695 40.6567 434.885 37.37C436.132 34.0267 437.803 31.165 439.9 28.785C442.053 26.405 444.575 24.5633 447.465 23.26C450.355 21.9 453.5 21.22 456.9 21.22C460.243 21.22 463.388 21.9 466.335 23.26C469.338 24.5633 471.945 26.405 474.155 28.785C476.422 31.165 478.207 34.0267 479.51 37.37C480.813 40.6567 481.465 44.2833 481.465 48.25C481.465 52.2167 480.813 55.8717 479.51 59.215C478.207 62.5017 476.422 65.335 474.155 67.715C471.945 70.095 469.338 71.965 466.335 73.325C463.388 74.6283 460.243 75.28 456.9 75.28C453.5 75.28 450.355 74.6283 447.465 73.325C444.575 71.965 442.053 70.095 439.9 67.715C437.803 65.335 436.132 62.5017 434.885 59.215C433.695 55.8717 433.1 52.2167 433.1 48.25ZM505.115 18.5V55.05C505.115 57.3733 505.342 59.9517 505.795 62.785C506.248 65.5617 507.325 68.1683 509.025 70.605C510.725 72.985 513.247 74.9967 516.59 76.64C519.933 78.2267 524.495 79.02 530.275 79.02C533.902 79.02 537.103 78.4533 539.88 77.32C542.713 76.1867 545.065 74.6283 546.935 72.645C548.862 70.6617 550.307 68.3667 551.27 65.76C552.233 63.0967 552.715 60.2633 552.715 57.26V18.5H548.975V54.455C548.975 55.7017 548.947 56.9767 548.89 58.28C548.833 59.5267 548.663 60.8017 548.38 62.105C548.097 63.3517 547.643 64.5983 547.02 65.845C546.453 67.0917 545.603 68.3383 544.47 69.585C542.43 71.795 540.135 73.2967 537.585 74.09C535.035 74.8833 532.372 75.28 529.595 75.28C527.215 75.28 525.09 74.9117 523.22 74.175C521.407 73.4383 519.678 72.3333 518.035 70.86C516.732 69.7267 515.74 68.5933 515.06 67.46C514.38 66.3267 513.87 65.2217 513.53 64.145C513.19 63.0117 512.992 61.8783 512.935 60.745C512.878 59.6117 512.85 58.4783 512.85 57.345V18.5H505.115ZM581.677 53.18C583.15 53.5767 584.737 53.9167 586.437 54.2C588.137 54.4267 590.007 54.54 592.047 54.54C595.503 54.54 598.563 54.0583 601.227 53.095C603.89 52.1317 606.1 50.8283 607.857 49.185C609.67 47.485 611.03 45.5583 611.937 43.405C612.843 41.195 613.297 38.8433 613.297 36.35C613.297 33.97 612.9 31.7033 612.107 29.55C611.313 27.34 610.095 25.4417 608.452 23.855C606.865 22.2117 604.853 20.9083 602.417 19.945C599.98 18.9817 597.118 18.5 593.832 18.5H573.942V78H581.677V53.18ZM581.677 22.24H590.602C592.982 22.24 595.078 22.665 596.892 23.515C598.705 24.365 600.207 25.4983 601.397 26.915C602.587 28.275 603.465 29.8333 604.032 31.59C604.655 33.29 604.967 34.99 604.967 36.69C604.967 38.3333 604.683 40.005 604.117 41.705C603.607 43.3483 602.757 44.85 601.567 46.21C600.377 47.57 598.875 48.675 597.062 49.525C595.248 50.375 593.067 50.8 590.517 50.8C588.76 50.8 587.145 50.7433 585.672 50.63C584.198 50.46 582.867 50.1483 581.677 49.695V22.24Z" fill="black"/>
<path d="M41 0.5V10L83 7L88 5L41 0.5Z" fill="black"/>
<path d="M17 18L17.5 31L67 25.4643V19.5714L17 18Z" fill="#FF0000"/>
<path d="M0 43L0 50L45 42V35.5L0 43Z" fill="black"/>
<path d="M66 101L67 106H88V101H66Z" fill="black"/>
<path d="M25 101L25 106H45V101H25Z" fill="black"/>
<path d="M46 3L41 3V15.5L46 15V3Z" fill="black"/>
<path d="M88 5L78 7L83 106H88L88 5Z" fill="black"/>
<path d="M67 20L55 26.5L63 106H67.5L67 20Z" fill="#FF0000"/>
<path d="M45 37H40L35.5 101L45 106L45 37Z" fill="black"/>
<path d="M5 43H-1.78814e-07L-1.78814e-07 106H4.5L5 43Z" fill="black"/>
<path d="M25 30.1627L17.5 31L19.5 86L21 106H25L25 30.1627Z" fill="black"/>
<defs>
<filter id="filter0_b_0_1" x="101.4" y="87.76" width="344.073" height="24.34" filterUnits="userSpaceOnUse" color-interpolation-filters="sRGB">
<feFlood flood-opacity="0" result="BackgroundImageFix"/>
<feGaussianBlur in="BackgroundImageFix" stdDeviation="2"/>
<feComposite in2="SourceAlpha" operator="in" result="effect1_backgroundBlur_0_1"/>
<feBlend mode="normal" in="SourceGraphic" in2="effect1_backgroundBlur_0_1" result="shape"/>
</filter>
</defs>
</svg>
