<svg width="614" height="109" fill="none" xmlns="http://www.w3.org/2000/svg"><g filter="url(#filter0_b_0_1)"><path d="M106.76 92h-1.36v14h.88V94.58h.08l6.18 11.66h.36l6.32-11.58h.08V106h1.82V92h-1.38l-6.48 12.02h-.08L106.76 92zm19.767 7c0 .747.14 1.547.42 2.4.294.84.747 1.62 1.36 2.34.614.72 1.394 1.32 2.34 1.8.947.467 2.08.7 3.4.7.894 0 1.7-.107 2.42-.32a7.789 7.789 0 001.96-.9 7.126 7.126 0 001.52-1.28 7.413 7.413 0 001.04-1.54c.28-.547.487-1.093.62-1.64.147-.547.22-1.067.22-1.56 0-.747-.153-1.54-.46-2.38a7.19 7.19 0 00-1.42-2.36c-.64-.72-1.453-1.313-2.44-1.78-.973-.48-2.126-.72-3.46-.72-1.32 0-2.453.233-3.4.7-.946.467-1.726 1.06-2.34 1.78a7.052 7.052 0 00-1.36 2.34c-.28.853-.42 1.66-.42 2.42zm1.96 0c0-.933.14-1.787.42-2.56.294-.787.687-1.46 1.18-2.02a5.34 5.34 0 011.78-1.3c.68-.32 1.42-.48 2.22-.48.787 0 1.527.16 2.22.48.707.307 1.32.74 1.84 1.3a6.08 6.08 0 011.26 2.02c.307.773.46 1.627.46 2.56s-.153 1.793-.46 2.58a6.133 6.133 0 01-1.26 2c-.52.56-1.133 1-1.84 1.32a5.419 5.419 0 01-2.22.46c-.8 0-1.54-.153-2.22-.46a5.589 5.589 0 01-1.78-1.32 6.476 6.476 0 01-1.18-2c-.28-.787-.42-1.647-.42-2.58zm25.065-7h-1.22l-5.02 13.06h-1.88v3.04h1.72V106h12.2v2.1h1.7v-3.04h-1.96L153.552 92zm3.62 13.06h-8.92l4.2-10.88h.08l4.64 10.88zM166.388 92h-2.14l6.26 10.14-.72 1.52c-.133.267-.3.5-.5.7-.186.2-.493.3-.92.3-.32 0-.613-.1-.88-.3a3.388 3.388 0 01-.66-.64l-.84 1.86c.187.16.46.307.82.44.374.147.787.22 1.24.22.2 0 .407-.02.62-.06.227-.04.44-.127.64-.26.214-.133.42-.313.62-.54.2-.24.394-.553.58-.94l5.74-12.44h-1.04l-3.74 8.12h-.08l-5-8.12zm21.584 0h-1.1l-4.32 11.04c-.227.6-.447 1.08-.66 1.44-.2.36-.52.54-.96.54a.98.98 0 01-.5-.14 8.438 8.438 0 00-.44-.24l-.54 1.36c.226.08.466.14.72.18.266.04.533.06.8.06.426 0 .806-.18 1.14-.54.346-.36.653-.88.92-1.56l3.9-9.9h.08l5.06 11.76h1.98l-6.08-14zm11.08 14h4.76c.96 0 1.76-.127 2.4-.38.64-.253 1.154-.58 1.54-.98.387-.4.66-.84.82-1.32.174-.493.26-.98.26-1.46 0-.453-.093-.907-.28-1.36a2.993 2.993 0 00-.86-1.2c-.386-.347-.893-.627-1.52-.84-.613-.227-1.36-.34-2.24-.34h-3.06V92h-1.82v14zm1.82-.88V99h2.56c.494 0 .947.08 1.36.24.427.147.787.36 1.08.64.307.267.54.593.7.98.174.373.26.78.26 1.22 0 .413-.08.807-.24 1.18-.146.36-.36.68-.64.96-.266.28-.593.5-.98.66-.373.16-.793.24-1.26.24h-2.84zm15.379-6.08h8.38V106h1.82V92h-1.82v6.12h-8.38V92h-1.82v14h1.82v-6.96zm16.997 6.96h4.76c.96 0 1.76-.127 2.4-.38.64-.253 1.153-.58 1.54-.98.386-.4.66-.84.82-1.32.173-.493.26-.98.26-1.46a3.56 3.56 0 00-.28-1.36 3.003 3.003 0 00-.86-1.2c-.387-.347-.894-.627-1.52-.84-.614-.227-1.36-.34-2.24-.34h-3.06V92h-1.82v14zm1.82-.88V99h2.56c.493 0 .946.08 1.36.24.426.147.786.36 1.08.64a2.6 2.6 0 01.7.98c.173.373.26.78.26 1.22 0 .413-.08.807-.24 1.18-.147.36-.36.68-.64.96-.267.28-.594.5-.98.66-.374.16-.794.24-1.26.24h-2.84zm9.96-13.12v14h1.82V92h-1.82zm8.618 0v14h9.04v-1.1h-7.22v-5.82h6.2v-.96h-6.2V93.1h7.22V92h-9.04zm28.204 14V93.1h5.36V92h-12.54v1.1h5.36V106h1.82zm10.159-14v14h9.04v-1.1h-7.22v-5.82h6.2v-.96h-6.2V93.1h7.22V92h-9.04zm14.272 0h-2.24l5.46 7.02-5.36 6.98h1.08l4.78-6.26h.08l4.88 6.26h2.26l-6.06-7.74 4.78-6.26h-1.06l-4.22 5.5h-.1l-4.28-5.5zm17.564 7.04h8.38V106h1.82V92h-1.82v6.12h-8.38V92h-1.82v14h1.82v-6.96zm15.596-.04c0 .747.14 1.547.42 2.4.294.84.747 1.62 1.36 2.34.614.72 1.394 1.32 2.34 1.8.947.467 2.08.7 3.4.7.894 0 1.7-.107 2.42-.32a7.789 7.789 0 001.96-.9 7.126 7.126 0 001.52-1.28 7.413 7.413 0 001.04-1.54c.28-.547.487-1.093.62-1.64.147-.547.22-1.067.22-1.56 0-.747-.153-1.54-.46-2.38a7.19 7.19 0 00-1.42-2.36c-.64-.72-1.453-1.313-2.44-1.78-.973-.48-2.126-.72-3.46-.72-1.32 0-2.453.233-3.4.7-.946.467-1.726 1.06-2.34 1.78a7.052 7.052 0 00-1.36 2.34c-.28.853-.42 1.66-.42 2.42zm1.96 0c0-.933.14-1.787.42-2.56.294-.787.687-1.46 1.18-2.02a5.34 5.34 0 011.78-1.3c.68-.32 1.42-.48 2.22-.48.787 0 1.527.16 2.22.48.707.307 1.32.74 1.84 1.3a6.08 6.08 0 011.26 2.02c.307.773.46 1.627.46 2.56s-.153 1.793-.46 2.58a6.133 6.133 0 01-1.26 2c-.52.56-1.133 1-1.84 1.32a5.419 5.419 0 01-2.22.46c-.8 0-1.54-.153-2.22-.46a5.589 5.589 0 01-1.78-1.32 6.476 6.476 0 01-1.18-2c-.28-.787-.42-1.647-.42-2.58zm25.465-7h-1.1l-4.32 11.04c-.227.6-.447 1.08-.66 1.44-.2.36-.52.54-.96.54a.983.983 0 01-.5-.14 8.438 8.438 0 00-.44-.24l-.54 1.36c.227.08.467.14.72.18.267.04.533.06.8.06.427 0 .807-.18 1.14-.54.347-.36.653-.88.92-1.56l3.9-9.9h.08l5.06 11.76h1.98l-6.08-14zm9.681 7c0 .747.14 1.547.42 2.4.293.84.747 1.62 1.36 2.34.613.72 1.393 1.32 2.34 1.8.947.467 2.08.7 3.4.7.893 0 1.7-.107 2.42-.32a7.805 7.805 0 001.96-.9 7.15 7.15 0 001.52-1.28 7.452 7.452 0 001.04-1.54c.28-.547.487-1.093.62-1.64.147-.547.22-1.067.22-1.56 0-.747-.153-1.54-.46-2.38a7.207 7.207 0 00-1.42-2.36c-.64-.72-1.453-1.313-2.44-1.78-.973-.48-2.127-.72-3.46-.72-1.32 0-2.453.233-3.4.7-.947.467-1.727 1.06-2.34 1.78a7.035 7.035 0 00-1.36 2.34c-.28.853-.42 1.66-.42 2.42zm1.96 0c0-.933.14-1.787.42-2.56.293-.787.687-1.46 1.18-2.02a5.34 5.34 0 011.78-1.3c.68-.32 1.42-.48 2.22-.48.787 0 1.527.16 2.22.48.707.307 1.32.74 1.84 1.3.533.56.953 1.233 1.26 2.02.307.773.46 1.627.46 2.56s-.153 1.793-.46 2.58a6.167 6.167 0 01-1.26 2c-.52.56-1.133 1-1.84 1.32a5.419 5.419 0 01-2.22.46c-.8 0-1.54-.153-2.22-.46a5.589 5.589 0 01-1.78-1.32 6.457 6.457 0 01-1.18-2c-.28-.787-.42-1.647-.42-2.58zm18.745-7v14h1.82V93.1h6.72V92h-8.54zm15.363 12.36V92h-1.82v14h1.82l8.3-12.5V106h1.82V92h-1.82l-8.3 12.36zm18.738 0V92h-1.82v14h1.82l8.3-12.5V106h1.82V92h-1.82l-8.3 12.36z" fill="#000"/></g><path d="M111.109 18.5h-5.78V78h3.74V29.465h.34l26.265 49.555h1.53l26.86-49.215h.34V78h7.735V18.5h-5.865l-27.54 51.085h-.34L111.109 18.5zM218.836 78V23.175h22.78V18.5h-53.295v4.675h22.78V78h7.735zm127.041-26.52h-16.83v3.485h9.52V70.35c-2.55 1.643-5.157 2.862-7.82 3.655-2.664.793-5.695 1.19-9.095 1.19-4.477 0-8.387-.68-11.73-2.04-3.344-1.36-6.12-3.23-8.33-5.61-2.21-2.437-3.882-5.298-5.015-8.585-1.077-3.343-1.615-6.998-1.615-10.965 0-3.91.51-7.508 1.53-10.795 1.076-3.287 2.663-6.12 4.76-8.5 2.096-2.38 4.646-4.222 7.65-5.525 3.06-1.303 6.601-1.955 10.625-1.955 2.663 0 5.156.283 7.48.85 2.323.567 4.391 1.303 6.205 2.21 1.813.907 3.286 1.955 4.42 3.145 1.19 1.133 1.955 2.295 2.295 3.485h6.12c-.51-1.247-1.389-2.635-2.635-4.165-1.19-1.587-2.834-3.06-4.93-4.42-2.097-1.36-4.704-2.493-7.82-3.4-3.06-.963-6.687-1.445-10.88-1.445-4.817 0-9.265.68-13.345 2.04-4.024 1.36-7.509 3.315-10.455 5.865-2.947 2.55-5.242 5.695-6.885 9.435-1.644 3.683-2.465 7.877-2.465 12.58 0 4.023.623 7.933 1.87 11.73a30.71 30.71 0 005.865 10.115c2.663 2.947 6.035 5.327 10.115 7.14 4.08 1.757 8.953 2.635 14.62 2.635 4.25 0 8.018-.453 11.305-1.36 3.286-.963 6.006-2.012 8.16-3.145V78h7.31V51.48zm19.582-32.98V78h7.735V51.735h3.74c1.587 0 2.89.142 3.91.425a7.711 7.711 0 012.89 1.445c.85.68 1.644 1.558 2.38 2.635a169.904 169.904 0 012.635 3.995l6.715 9.945a76.557 76.557 0 002.465 3.57 18.32 18.32 0 002.72 2.805 12.75 12.75 0 003.23 1.785c1.247.453 2.72.68 4.42.68 1.247 0 2.267-.057 3.06-.17.794-.113 1.587-.397 2.38-.85v-3.145l-.85.17h-.85c-1.19 0-2.238-.17-3.145-.51a9.547 9.547 0 01-2.55-1.445 18.456 18.456 0 01-2.295-2.38 62.192 62.192 0 01-2.295-3.23c-2.38-3.457-4.221-6.205-5.525-8.245-1.303-2.097-2.351-3.712-3.145-4.845-.736-1.133-1.36-1.955-1.87-2.465a5.577 5.577 0 00-1.7-1.275l-.85-.425v-.34c2.72-.17 5.044-.765 6.97-1.785 1.984-1.02 3.599-2.295 4.845-3.825 1.247-1.53 2.154-3.173 2.72-4.93.567-1.813.85-3.57.85-5.27 0-1.53-.311-3.202-.935-5.015-.566-1.813-1.586-3.485-3.06-5.015-1.416-1.587-3.371-2.89-5.865-3.91-2.493-1.077-5.638-1.615-9.435-1.615h-19.295zm7.735 3.74h8.585c2.154 0 4.08.312 5.78.935 1.757.623 3.259 1.502 4.505 2.635a10.153 10.153 0 012.805 3.91c.68 1.53 1.02 3.202 1.02 5.015 0 1.53-.311 3.088-.935 4.675-.566 1.53-1.445 2.947-2.635 4.25-1.19 1.247-2.663 2.267-4.42 3.06-1.7.793-3.683 1.19-5.95 1.19h-8.755V22.24zm51.576 26.01c0 3.173.595 6.573 1.785 10.2 1.247 3.57 3.173 6.885 5.78 9.945 2.607 3.06 5.922 5.61 9.945 7.65 4.023 1.983 8.84 2.975 14.45 2.975 3.797 0 7.225-.453 10.285-1.36 3.117-.963 5.893-2.238 8.33-3.825 2.493-1.587 4.647-3.4 6.46-5.44 1.813-2.097 3.287-4.278 4.42-6.545 1.19-2.323 2.068-4.647 2.635-6.97.623-2.323.935-4.533.935-6.63 0-3.173-.652-6.545-1.955-10.115-1.303-3.627-3.315-6.97-6.035-10.03-2.72-3.06-6.177-5.582-10.37-7.565-4.137-2.04-9.038-3.06-14.705-3.06-5.61 0-10.427.992-14.45 2.975s-7.338 4.505-9.945 7.565c-2.607 3.003-4.533 6.318-5.78 9.945-1.19 3.627-1.785 7.055-1.785 10.285zm8.33 0c0-3.967.595-7.593 1.785-10.88 1.247-3.343 2.918-6.205 5.015-8.585a22.674 22.674 0 017.565-5.525c2.89-1.36 6.035-2.04 9.435-2.04 3.343 0 6.488.68 9.435 2.04a23.108 23.108 0 017.82 5.525c2.267 2.38 4.052 5.242 5.355 8.585 1.303 3.287 1.955 6.913 1.955 10.88 0 3.967-.652 7.622-1.955 10.965-1.303 3.287-3.088 6.12-5.355 8.5a24.157 24.157 0 01-7.82 5.61c-2.947 1.303-6.092 1.955-9.435 1.955-3.4 0-6.545-.652-9.435-1.955a23.734 23.734 0 01-7.565-5.61c-2.097-2.38-3.768-5.213-5.015-8.5-1.19-3.343-1.785-6.998-1.785-10.965zm72.015-29.75v36.55c0 2.323.227 4.902.68 7.735.453 2.777 1.53 5.383 3.23 7.82 1.7 2.38 4.222 4.392 7.565 6.035 3.343 1.587 7.905 2.38 13.685 2.38 3.627 0 6.828-.567 9.605-1.7 2.833-1.133 5.185-2.692 7.055-4.675a19.437 19.437 0 004.335-6.885c.963-2.663 1.445-5.497 1.445-8.5V18.5h-3.74v35.955c0 1.247-.028 2.522-.085 3.825a22.957 22.957 0 01-.51 3.825 16.573 16.573 0 01-1.36 3.74c-.567 1.247-1.417 2.493-2.55 3.74-2.04 2.21-4.335 3.712-6.885 4.505-2.55.793-5.213 1.19-7.99 1.19-2.38 0-4.505-.368-6.375-1.105-1.813-.737-3.542-1.842-5.185-3.315-1.303-1.133-2.295-2.267-2.975-3.4-.68-1.133-1.19-2.238-1.53-3.315a14.297 14.297 0 01-.595-3.4 67.676 67.676 0 01-.085-3.4V18.5h-7.735zm76.562 34.68c1.473.397 3.06.737 4.76 1.02 1.7.227 3.57.34 5.61.34 3.456 0 6.516-.482 9.18-1.445 2.663-.963 4.873-2.267 6.63-3.91 1.813-1.7 3.173-3.627 4.08-5.78.906-2.21 1.36-4.562 1.36-7.055 0-2.38-.397-4.647-1.19-6.8-.794-2.21-2.012-4.108-3.655-5.695-1.587-1.643-3.599-2.947-6.035-3.91-2.437-.963-5.299-1.445-8.585-1.445h-19.89V78h7.735V53.18zm0-30.94h8.925c2.38 0 4.476.425 6.29 1.275 1.813.85 3.315 1.983 4.505 3.4a13.154 13.154 0 012.635 4.675c.623 1.7.935 3.4.935 5.1 0 1.643-.284 3.315-.85 5.015-.51 1.643-1.36 3.145-2.55 4.505-1.19 1.36-2.692 2.465-4.505 3.315-1.814.85-3.995 1.275-6.545 1.275a63.5 63.5 0 01-4.845-.17c-1.474-.17-2.805-.482-3.995-.935V22.24zM41 .5V10l42-3 5-2L41 .5z" fill="#000"/><path d="M17 18l.5 13L67 25.464v-5.893L17 18z" fill="red"/><path d="M0 43v7l45-8v-6.5L0 43zm66 58l1 5h21v-5H66zm-41 0v5h20v-5H25zM46 3h-5v12.5l5-.5V3z" fill="#000"/><path d="M88 5L78 7l5 99h5V5z" fill="#000"/><path d="M67 20l-12 6.5 8 79.5h4.5L67 20z" fill="red"/><path d="M45 37h-5l-4.5 64 9.5 5V37zM5 43H0v63h4.5L5 43zm20-12.837L17.5 31l2 55 1.5 20h4V30.163z" fill="#000"/><defs><filter id="filter0_b_0_1" x="101.4" y="87.76" width="344.073" height="24.34" filterUnits="userSpaceOnUse" color-interpolation-filters="sRGB"><feFlood flood-opacity="0" result="BackgroundImageFix"/><feGaussianBlur in="BackgroundImageFix" stdDeviation="2"/><feComposite in2="SourceAlpha" operator="in" result="effect1_backgroundBlur_0_1"/><feBlend in="SourceGraphic" in2="effect1_backgroundBlur_0_1" result="shape"/></filter></defs></svg>