<svg width="218" height="218" viewBox="-2.16 -2.16 28.32 28.32" fill="none" xmlns="http://www.w3.org/2000/svg" stroke="#fff"><rect x="-2.16" y="-2.16" width="28.32" height="28.32" rx="14.16" fill="#f90000" stroke="none"/><path d="M15 3c1.532.17 2.91.911 4 2 1.09 1.089 1.828 2.469 2 4m-6.5-2.5c.737.144 1.469.469 2 1 .531.531.856 1.263 1 2m-9.3 6.299C1.303 8.9 2.283 5.741 3.01 4.723c.094-.164 2.396-3.611 4.865-1.589C14 8.18 6.5 8 11.389 12.611c4.89 4.612 4.432-2.611 9.477 3.514 2.022 2.469-1.425 4.771-1.588 4.864-1.018.728-4.178 1.709-11.078-5.19z" stroke="#000" stroke-width="1.848" stroke-linecap="round" stroke-linejoin="round"/></svg>