<svg preserveAspectRatio="xMidYMid meet" data-bbox="49.7 19.7 100.5 160.5" xmlns="http://www.w3.org/2000/svg" viewBox="49.7 19.7 100.5 160.5" role="presentation" aria-hidden="true">
    <g>
        <path d="M130.1 155.2v10c0 2.8-2.2 5-5 5h-5c0 5.5-4.5 10-10 10H90c-5.5 0-10-4.5-10-10h-5c-2.8 0-5-2.2-5-5v-10c0-2.8 2.2-5 5-5h50.2c2.7 0 4.9 2.3 4.9 5zm20.1-85.3c0 5.2-.8 10.3-2.3 15l-18.3 48.2c-1.3 4.1-5.1 7-9.6 7H79.8c-4.5 0-8.3-2.9-9.6-7L52 84.9c-1.5-4.7-2.3-9.8-2.3-15 0-27.7 22.5-50.2 50.2-50.2 27.8 0 50.3 22.4 50.3 50.2zM105 39.7c0-2.8-2.2-5-5-5-19.4 0-35.1 15.8-35.1 35.1 0 2.8 2.2 5 5 5s5-2.2 5-5c0-13.8 11.3-25.1 25.1-25.1 2.8.1 5-2.2 5-5z" fill="#670e0e"></path>
    </g>
</svg>
