<svg xmlns="http://www.w3.org/2000/svg" version="1.1" xmlns:xlink="http://www.w3.org/1999/xlink" xmlns:svgjs="http://svgjs.com/svgjs" width="1000" height="1000"><rect width="1000" height="1000" rx="150" ry="150" fill="#ffffff"></rect><g transform="matrix(7.339449541284404,0,0,7.339449541284404,166.5642213170686,107.92431192660547)"><svg xmlns="http://www.w3.org/2000/svg" version="1.1" xmlns:xlink="http://www.w3.org/1999/xlink" xmlns:svgjs="http://svgjs.com/svgjs" width="109" height="109"><svg width="109" height="109" viewBox="0 0 109 109" fill="none" xmlns="http://www.w3.org/2000/svg">
<path d="M41 0.5V10L83 7L88 5L41 0.5Z" fill="black"></path>
<path d="M17 18L17.5 31L67 25.4643V19.5714L17 18Z" fill="#FF0000"></path>
<path d="M0 43L0 50L45 42V35.5L0 43Z" fill="black"></path>
<path d="M66 101L67 106H88V101H66Z" fill="black"></path>
<path d="M25 101L25 106H45V101H25Z" fill="black"></path>
<path d="M46 3L41 3V15.5L46 15V3Z" fill="black"></path>
<path d="M88 5L78 7L83 106H88L88 5Z" fill="black"></path>
<path d="M67 20L55 26.5L63 106H67.5L67 20Z" fill="#FF0000"></path>
<path d="M45 37H40L35.5 101L45 106L45 37Z" fill="black"></path>
<path d="M5 43H-1.78814e-07L-1.78814e-07 106H4.5L5 43Z" fill="black"></path>
<path d="M25 30.1627L17.5 31L19.5 86L21 106H25L25 30.1627Z" fill="black"></path>
<defs>
<filter id="filter0_b_0_1" x="101.4" y="87.76" width="344.073" height="24.34" filterUnits="userSpaceOnUse" color-interpolation-filters="sRGB">
<feFlood flood-opacity="0" result="BackgroundImageFix"></feFlood>
<feGaussianBlur in="BackgroundImageFix" stdDeviation="2"></feGaussianBlur>
<feComposite in2="SourceAlpha" operator="in" result="effect1_backgroundBlur_0_1"></feComposite>
<feBlend mode="normal" in="SourceGraphic" in2="effect1_backgroundBlur_0_1" result="shape"></feBlend>
</filter>
</defs>
</svg></svg></g></svg>