<!DOCTYPE svg PUBLIC "-//W3C//DTD SVG 1.1//EN" "http://www.w3.org/Graphics/SVG/1.1/DTD/svg11.dtd">
<!-- Uploaded to: SVG Repo, www.svgrepo.com, Transformed by: SVG Repo Mixer Tools -->
<svg fill="#f90000" height="800px" width="800px" version="1.1" id="Layer_1" xmlns="http://www.w3.org/2000/svg" xmlns:xlink="http://www.w3.org/1999/xlink" viewBox="0 0 512 512" xml:space="preserve" stroke="#f90000">
<g id="SVGRepo_bgCarrier" stroke-width="0"/>
<g id="SVGRepo_tracerCarrier" stroke-linecap="round" stroke-linejoin="round"/>
<g id="SVGRepo_iconCarrier"> <g> <g> <g> <path d="M223.997,373.331c5.876,0,10.666-4.791,10.666-10.665c0-5.875-4.79-10.669-10.666-10.669 c-5.874,0-10.664,4.793-10.664,10.669C213.333,368.54,218.123,373.331,223.997,373.331z"/> <path d="M501.331,154.67c5.89,0,10.669-4.776,10.669-10.669V37.338c0-5.892-4.778-10.669-10.669-10.669H335.01 c-0.142-0.16-0.282-0.322-0.435-0.476L311.509,3.127c-4.167-4.166-10.92-4.166-15.089,0c-3.88,3.879-11.519,6.289-19.94,6.289 c-5.897,0-11.702-1.235-15.148-3.224c-3.299-1.904-7.366-1.904-10.666,0c-3.445,1.989-9.25,3.224-15.146,3.224 c-8.419,0-16.057-2.41-19.938-6.29c-4.165-4.165-10.92-4.166-15.089,0.001l-23.067,23.067c-0.151,0.154-0.293,0.315-0.435,0.476 H10.673c-5.89,0-10.669,4.776-10.669,10.669v106.664c0,5.892,4.778,10.669,10.669,10.669h31.995v293.325H10.669 C4.779,447.995,0,452.773,0,458.664v42.666c0,5.891,4.779,10.669,10.669,10.669h490.659c5.89,0,10.669-4.777,10.669-10.669 v-42.666c0-5.891-4.779-10.669-10.669-10.669h-31.993V154.67H501.331z M196.867,102.169c0.33-1.679,0.792-3.42,1.382-5.235 c0.514-1.583,1.069-3.18,1.629-4.799c0.387-1.121,0.787-2.278,1.185-3.463c0.073-0.213,0.144-0.426,0.217-0.642 c0.061-0.184,0.121-0.37,0.184-0.556c0.1-0.303,0.201-0.607,0.3-0.914c0.046-0.144,0.092-0.289,0.138-0.433 c0.112-0.354,0.225-0.709,0.337-1.069c0.035-0.115,0.07-0.233,0.107-0.348c0.121-0.395,0.242-0.791,0.361-1.191 c0.025-0.09,0.052-0.18,0.077-0.271c0.127-0.433,0.254-0.87,0.375-1.311c0.019-0.061,0.033-0.122,0.052-0.182 c0.129-0.473,0.256-0.949,0.381-1.431c0.011-0.039,0.021-0.078,0.031-0.117c0.129-0.506,0.256-1.016,0.378-1.531 c0.006-0.019,0.011-0.037,0.015-0.055c1.815-7.67,2.684-16.381,0.604-26.236c-0.006-0.027-0.013-0.054-0.019-0.081 c-0.138-0.651-0.288-1.306-0.452-1.966c-0.054-0.212-0.114-0.428-0.171-0.641c-0.125-0.478-0.25-0.955-0.387-1.437 c-0.09-0.31-0.19-0.624-0.286-0.937c-0.118-0.392-0.236-0.782-0.365-1.178c-0.123-0.371-0.254-0.747-0.385-1.121 c-0.118-0.34-0.236-0.681-0.361-1.024c-0.153-0.413-0.315-0.829-0.477-1.245c-0.121-0.314-0.242-0.626-0.371-0.942 c-0.177-0.435-0.365-0.874-0.555-1.313c-0.133-0.305-0.265-0.61-0.402-0.918c-0.201-0.445-0.409-0.891-0.621-1.34 c-0.148-0.314-0.298-0.627-0.454-0.943c-0.214-0.44-0.44-0.881-0.667-1.324c-0.096-0.182-0.179-0.363-0.277-0.546l10.821-10.818 c7.335,3.968,16.471,6.144,26.332,6.144c7.464,0,14.536-1.24,20.481-3.546c5.945,2.307,13.017,3.546,20.481,3.546 c9.862,0,19-2.175,26.334-6.144l10.815,10.815c-0.094,0.177-0.175,0.351-0.267,0.527c-0.234,0.452-0.463,0.904-0.682,1.352 c-0.155,0.312-0.3,0.621-0.448,0.929c-0.212,0.449-0.421,0.897-0.621,1.342c-0.142,0.313-0.275,0.623-0.409,0.934 c-0.186,0.431-0.371,0.862-0.546,1.289c-0.135,0.332-0.262,0.661-0.389,0.991c-0.155,0.397-0.31,0.795-0.454,1.188 c-0.138,0.372-0.265,0.74-0.392,1.111c-0.118,0.344-0.242,0.689-0.352,1.03c-0.146,0.442-0.277,0.879-0.411,1.317 c-0.079,0.263-0.164,0.529-0.24,0.791c-0.16,0.556-0.306,1.105-0.448,1.654c-0.035,0.141-0.077,0.283-0.111,0.422 c-4.282,17.147,0.483,30.925,4.259,41.832c0.558,1.618,1.113,3.217,1.627,4.801c0.286,0.876,0.538,1.734,0.763,2.575 c1.404,5.27,1.629,9.924,0.542,14.321c-1.623,6.557-6.159,12.544-14.034,19.162c-0.5,0.421-1.006,0.827-1.513,1.226 c-0.448,0.348-0.907,0.689-1.369,1.028c-0.05,0.037-0.1,0.077-0.153,0.114c-0.004,0.004-0.011,0.007-0.015,0.011 c-0.944,0.686-1.9,1.332-2.863,1.949c-0.021,0.014-0.044,0.028-0.065,0.042c-0.96,0.613-1.93,1.195-2.905,1.749 c-0.015,0.009-0.029,0.017-0.044,0.025c-5.938,3.363-12.121,5.7-18.149,7.979c-6.482,2.451-12.759,4.822-17.945,8.326 c-5.186-3.503-11.465-5.875-17.947-8.326c-6.023-2.279-12.203-4.614-18.139-7.976c-0.021-0.012-0.039-0.022-0.061-0.033 c-0.967-0.549-1.928-1.127-2.882-1.734c-0.033-0.022-0.068-0.046-0.105-0.067c-0.953-0.61-1.898-1.251-2.834-1.931 c-0.289-0.209-0.575-0.428-0.863-0.647c-0.254-0.192-0.511-0.384-0.759-0.578c-0.479-0.376-0.956-0.759-1.43-1.155 c-10.063-8.457-14.674-15.885-14.722-24.783C196.248,106.273,196.455,104.268,196.867,102.169z M341.333,341.33v-39.993h43.768 c5.892,0,10.669-4.776,10.669-10.669c0-5.891-4.776-10.669-10.669-10.669h-43.768v-23.996h106.664v85.327H341.333z M447.997,362.669v85.328H341.333v-85.328H447.997z M330.664,234.667H181.333H64.005v-79.995H204.44 c0.116,0.076,0.234,0.143,0.35,0.218c2.111,1.376,4.23,2.621,6.338,3.756c0.092,0.049,0.181,0.097,0.271,0.146 c6.735,3.595,13.34,6.1,19.114,8.283c7.097,2.682,14.434,5.456,16.018,8.508c0.444,0.856,0.999,1.629,1.633,2.318 c0.021,0.022,0.037,0.05,0.059,0.073c0.121,0.127,0.258,0.235,0.383,0.356c1.611,1.553,3.669,2.594,5.918,2.907 c0.485,0.067,0.977,0.102,1.475,0.102c0.002,0,0.002,0,0.002,0c0.498,0,0.99-0.034,1.475-0.102 c0.021-0.003,0.042-0.011,0.063-0.014c0.463-0.067,0.919-0.16,1.365-0.286c0.052-0.015,0.102-0.039,0.155-0.055 c0.411-0.123,0.815-0.261,1.207-0.431c0.033-0.015,0.065-0.035,0.098-0.051c1.721-0.772,3.227-1.988,4.338-3.554 c0.011-0.015,0.019-0.031,0.029-0.046c0.269-0.385,0.518-0.789,0.739-1.215c1.585-3.053,8.922-5.827,16.02-8.51 c5.778-2.184,12.387-4.691,19.129-8.29c0.079-0.043,0.158-0.085,0.24-0.129c2.136-1.148,4.282-2.41,6.422-3.807 c0.094-0.062,0.188-0.114,0.282-0.176h140.434v79.993H330.664z M319.997,256.004v191.993h-0.001H192.002V256.004H319.997z M64.005,341.33v-85.327h106.66v85.327H64.005z M170.665,362.668v85.328H64.005v-85.328H170.665z M21.341,133.337V48.006h159.461 c0.155,0.335,0.295,0.666,0.44,0.996c0.067,0.153,0.135,0.306,0.198,0.457c0.127,0.304,0.248,0.604,0.367,0.905 c0.073,0.186,0.146,0.371,0.217,0.555c0.107,0.282,0.208,0.56,0.308,0.839c0.073,0.204,0.142,0.408,0.21,0.61 c0.09,0.259,0.175,0.518,0.258,0.777c0.073,0.233,0.142,0.463,0.208,0.692c0.069,0.226,0.138,0.453,0.201,0.677 c0.113,0.404,0.217,0.807,0.313,1.206c0.031,0.132,0.061,0.264,0.092,0.395c0.085,0.368,0.164,0.735,0.238,1.099 c0.027,0.14,0.052,0.278,0.077,0.418c0.061,0.32,0.116,0.64,0.166,0.957c0.021,0.137,0.039,0.273,0.061,0.41 c0.048,0.329,0.092,0.655,0.129,0.98c0.013,0.114,0.024,0.229,0.037,0.344c0.039,0.371,0.073,0.74,0.1,1.108 c0.004,0.064,0.011,0.128,0.015,0.191c0.092,1.361,0.1,2.697,0.037,4.014c0,0.015,0,0.03-0.002,0.045 c-0.021,0.422-0.048,0.842-0.081,1.259c-0.004,0.03-0.006,0.061-0.009,0.092c-0.035,0.419-0.079,0.839-0.127,1.256 c-0.002,0.009-0.002,0.018-0.004,0.027c-0.204,1.742-0.523,3.458-0.923,5.165c-0.004,0.021-0.011,0.041-0.015,0.061 c-0.094,0.399-0.192,0.796-0.293,1.194c-0.011,0.035-0.019,0.069-0.027,0.106c-0.107,0.406-0.214,0.812-0.328,1.217 c-0.002,0.01-0.004,0.018-0.006,0.027c-0.354,1.268-0.744,2.538-1.159,3.813c-0.015,0.046-0.029,0.092-0.044,0.138 c-0.121,0.37-0.242,0.739-0.367,1.111c-0.021,0.067-0.044,0.133-0.067,0.201c-0.125,0.377-0.252,0.753-0.381,1.132 c-0.011,0.032-0.022,0.063-0.033,0.096c-0.291,0.856-0.59,1.714-0.89,2.583c-0.604,1.747-1.2,3.473-1.758,5.185 c-0.346,1.065-0.65,2.111-0.934,3.145c-0.09,0.33-0.166,0.652-0.25,0.978c-0.181,0.708-0.354,1.413-0.507,2.108 c-0.079,0.361-0.155,0.719-0.225,1.076c-0.135,0.672-0.254,1.336-0.365,1.993c-0.054,0.33-0.111,0.66-0.158,0.986 c-0.116,0.785-0.21,1.56-0.289,2.327c-0.017,0.174-0.044,0.353-0.061,0.527c-0.087,0.937-0.144,1.857-0.179,2.766 c-0.009,0.244-0.009,0.482-0.013,0.725c-0.017,0.665-0.022,1.324-0.011,1.975c0.004,0.303,0.017,0.603,0.027,0.905 c0.022,0.593,0.054,1.18,0.098,1.761c0.021,0.289,0.042,0.578,0.068,0.864c0.061,0.638,0.135,1.266,0.221,1.888 c0.027,0.203,0.048,0.411,0.079,0.612c0.123,0.823,0.267,1.631,0.431,2.427c0.027,0.131,0.063,0.258,0.09,0.389 c0.144,0.659,0.3,1.311,0.469,1.952c0.064,0.242,0.135,0.479,0.202,0.719c0.153,0.532,0.31,1.059,0.479,1.579 c0.079,0.244,0.158,0.489,0.242,0.731c0.183,0.536,0.378,1.064,0.579,1.585c0.075,0.196,0.148,0.396,0.227,0.59 c0.571,1.422,1.204,2.795,1.892,4.119c0.098,0.189,0.201,0.372,0.3,0.558c0.252,0.473,0.511,0.94,0.778,1.401 c0.121,0.209,0.244,0.418,0.367,0.625c0.265,0.444,0.536,0.882,0.813,1.314c0.077,0.122,0.15,0.247,0.227,0.369H53.337H21.341z M490.659,469.334v21.329h0H21.337v-21.329h32h127.997h149.332h128H490.659z M458.665,133.333H329.446 c0.087-0.133,0.166-0.274,0.252-0.409c0.262-0.412,0.521-0.827,0.773-1.249c0.131-0.223,0.265-0.446,0.394-0.672 c0.256-0.442,0.505-0.892,0.746-1.345c0.109-0.203,0.221-0.401,0.325-0.605c0.684-1.318,1.314-2.683,1.884-4.098 c0.081-0.204,0.157-0.413,0.236-0.618c0.197-0.512,0.389-1.032,0.571-1.558c0.083-0.246,0.166-0.496,0.245-0.746 c0.169-0.515,0.325-1.039,0.475-1.568c0.068-0.241,0.14-0.48,0.204-0.724c0.171-0.644,0.328-1.297,0.47-1.96 c0.027-0.127,0.061-0.251,0.085-0.378c0.166-0.798,0.31-1.61,0.433-2.435c0.029-0.195,0.05-0.395,0.077-0.592 c0.087-0.629,0.162-1.266,0.223-1.911c0.027-0.281,0.046-0.562,0.067-0.845c0.046-0.59,0.077-1.185,0.1-1.789 c0.011-0.292,0.021-0.584,0.027-0.879c0.011-0.661,0.006-1.334-0.011-2.012c-0.006-0.23-0.004-0.458-0.013-0.689 c-0.035-0.912-0.094-1.839-0.181-2.78c-0.015-0.159-0.039-0.325-0.057-0.485c-0.079-0.78-0.175-1.569-0.291-2.368 c-0.048-0.32-0.105-0.644-0.158-0.969c-0.109-0.661-0.229-1.329-0.365-2.005c-0.073-0.357-0.148-0.716-0.227-1.078 c-0.153-0.689-0.321-1.387-0.503-2.091c-0.085-0.334-0.164-0.664-0.256-1.001c-0.269-0.988-0.562-1.986-0.892-3.001 c-0.015-0.046-0.025-0.09-0.039-0.135c-0.013-0.043-0.029-0.085-0.044-0.128c-0.544-1.671-1.126-3.354-1.714-5.059 c-0.142-0.414-0.286-0.825-0.427-1.235c-0.035-0.103-0.07-0.205-0.107-0.308c-0.096-0.283-0.194-0.564-0.29-0.846 c-0.064-0.188-0.127-0.375-0.192-0.562c-0.07-0.212-0.144-0.425-0.214-0.638c-0.067-0.2-0.133-0.399-0.201-0.599 c-0.069-0.204-0.135-0.409-0.203-0.612c-0.064-0.2-0.129-0.397-0.194-0.595c-0.07-0.221-0.142-0.442-0.21-0.662 c-0.057-0.177-0.112-0.355-0.169-0.532c-0.118-0.383-0.236-0.767-0.35-1.149c-0.035-0.12-0.069-0.24-0.105-0.36 c-0.081-0.282-0.162-0.562-0.242-0.844c-0.042-0.147-0.081-0.293-0.121-0.441c-0.07-0.258-0.142-0.516-0.208-0.777 c-0.039-0.146-0.077-0.292-0.112-0.438c-0.068-0.269-0.135-0.537-0.201-0.805c-0.031-0.134-0.063-0.269-0.094-0.403 c-0.07-0.302-0.138-0.605-0.202-0.909c-0.021-0.098-0.044-0.196-0.065-0.294c-0.171-0.826-0.321-1.655-0.448-2.489 c-0.009-0.06-0.017-0.119-0.025-0.179c-0.052-0.351-0.1-0.703-0.142-1.056c-0.013-0.102-0.022-0.204-0.035-0.306 c-0.035-0.315-0.067-0.631-0.096-0.948c-0.011-0.114-0.019-0.228-0.029-0.344c-0.025-0.317-0.046-0.634-0.063-0.953 c-0.004-0.107-0.013-0.213-0.017-0.32c-0.017-0.365-0.027-0.731-0.031-1.098c-0.002-0.059-0.004-0.115-0.004-0.174 c-0.004-0.435,0-0.873,0.013-1.312c0-0.045,0.004-0.091,0.006-0.137c0.011-0.377,0.029-0.755,0.054-1.135 c0.011-0.144,0.023-0.289,0.033-0.433c0.022-0.283,0.048-0.568,0.077-0.852c0.019-0.177,0.039-0.354,0.061-0.531 c0.029-0.255,0.065-0.51,0.1-0.767c0.027-0.196,0.057-0.394,0.087-0.592c0.039-0.24,0.081-0.482,0.125-0.723 c0.039-0.21,0.075-0.42,0.116-0.632c0.046-0.225,0.098-0.454,0.148-0.682c0.109-0.494,0.229-0.993,0.363-1.497 c0.037-0.141,0.07-0.281,0.109-0.422c0.081-0.292,0.171-0.589,0.26-0.884c0.048-0.16,0.096-0.319,0.146-0.479 c0.096-0.301,0.196-0.605,0.3-0.909c0.054-0.156,0.109-0.312,0.162-0.467c0.112-0.315,0.229-0.633,0.35-0.952 c0.054-0.139,0.109-0.28,0.164-0.42c0.133-0.338,0.269-0.679,0.413-1.021c0.039-0.095,0.083-0.191,0.123-0.286 c0.16-0.375,0.325-0.751,0.5-1.132h159.461v85.327H458.665z"/> <path d="M84.238,90.674h54.435c5.892,0,10.669-4.777,10.669-10.669c0-5.892-4.776-10.669-10.669-10.669H84.238 c-5.892,0-10.669,4.776-10.669,10.669C73.57,85.897,78.346,90.674,84.238,90.674z"/> <path d="M53.593,90.67c5.892,0,10.669-4.777,10.669-10.669c0-5.891-4.776-10.669-10.669-10.669h-0.256 c-5.891,0-10.669,4.777-10.669,10.669c0,5.891,4.777,10.669,10.669,10.669H53.593z"/> <path d="M256.003,122.673c17.645,0,32.002-14.357,32.002-32.004c0-17.645-14.357-32-32.002-32c-17.647,0-32.004,14.356-32.004,32 C224,108.316,238.356,122.673,256.003,122.673z M256.003,80.006c5.881,0,10.664,4.783,10.664,10.663 c0,5.882-4.784,10.667-10.664,10.667c-5.883,0-10.667-4.785-10.667-10.667C245.337,84.789,250.121,80.006,256.003,80.006z"/> <path d="M415.998,279.998h-0.252c-5.892,0-10.669,4.777-10.669,10.669s4.776,10.669,10.669,10.669h0.252 c5.892,0,10.669-4.777,10.669-10.669S421.891,279.998,415.998,279.998z"/> </g> </g> </g> </g>
</svg>